<svg xmlns="http://www.w3.org/2000/svg" xmlns:xlink="http://www.w3.org/1999/xlink" width="500" zoomAndPan="magnify" viewBox="0 0 375 374.999991" height="500" preserveAspectRatio="xMidYMid meet" version="1.0"><defs><g/><clipPath id="2fbbe1253d"><path d="M 3.203125 110 L 19 110 L 19 160 L 3.203125 160 Z M 3.203125 110 " clip-rule="nonzero"/></clipPath><clipPath id="3a529f7258"><path d="M 3.203125 187 L 4 187 L 4 193 L 3.203125 193 Z M 3.203125 187 " clip-rule="nonzero"/></clipPath><clipPath id="c65dfc1f94"><path d="M 3.203125 192 L 4 192 L 4 195 L 3.203125 195 Z M 3.203125 192 " clip-rule="nonzero"/></clipPath><clipPath id="99620b3959"><path d="M 59 1 L 371.453125 1 L 371.453125 373 L 59 373 Z M 59 1 " clip-rule="nonzero"/></clipPath><clipPath id="03c0a9bd35"><path d="M 4 182 L 187.953125 182 L 187.953125 374.832031 L 4 374.832031 Z M 4 182 " clip-rule="nonzero"/></clipPath></defs><rect x="-37.5" width="450" fill="#ffffff" y="-37.499999" height="449.999989" fill-opacity="1"/><rect x="-37.5" width="450" fill="#2b554e" y="-37.499999" height="449.999989" fill-opacity="1"/><path fill="#ffffff" d="M 242.894531 18.492188 C 237.714844 17.496094 226.632812 15.121094 227.179688 13.695312 C 226.894531 14.4375 226.746094 14.8125 225.699219 14.921875 C 224.644531 15.070312 222.734375 14.75 218.828125 14.6875 C 219.1875 13.691406 212.3125 12.664062 207.921875 12.320312 C 211.425781 13.53125 216.367188 14.183594 225.992188 16.667969 C 227.160156 16.640625 228.460938 16.742188 229.859375 16.933594 C 231.246094 17.179688 232.71875 17.542969 234.25 17.957031 C 235.78125 18.394531 237.394531 18.816406 238.992188 19.402344 C 240.585938 20.003906 242.207031 20.617188 243.824219 21.234375 C 244.632812 21.539062 245.4375 21.847656 246.238281 22.152344 C 247.027344 22.492188 247.808594 22.828125 248.582031 23.160156 C 250.128906 23.816406 251.640625 24.429688 253.097656 24.96875 C 255.980469 26.109375 258.582031 27.082031 260.800781 27.375 C 255.4375 24.308594 250.421875 20.347656 242.894531 18.492188 " fill-opacity="1" fill-rule="nonzero"/><path fill="#ffffff" d="M 203.121094 3.089844 L 201.660156 3.609375 C 201.660156 3.609375 202.699219 3.625 204.257812 3.652344 C 205.816406 3.648438 207.878906 3.863281 209.957031 3.980469 C 214.109375 4.179688 218.242188 4.726562 218.242188 4.726562 C 217.390625 4.703125 216.050781 4.597656 214.515625 4.445312 C 212.96875 4.355469 211.226562 4.238281 209.582031 4.085938 C 207.929688 3.941406 206.378906 3.753906 205.210938 3.578125 C 204.03125 3.449219 203.242188 3.285156 203.121094 3.089844 " fill-opacity="1" fill-rule="nonzero"/><path fill="#ffffff" d="M 150.121094 7.734375 C 151.355469 6.265625 142.992188 7.511719 142.882812 6.453125 C 143.703125 8.441406 130.1875 10.339844 123.394531 13.210938 L 121.3125 15.941406 C 122.1875 15.769531 123.203125 15.511719 124.339844 15.179688 C 125.484375 14.871094 126.761719 14.523438 128.152344 14.140625 C 129.535156 13.742188 131.019531 13.289062 132.578125 12.796875 C 134.140625 12.3125 135.820312 11.914062 137.539062 11.417969 C 144.394531 9.390625 152.382812 7.722656 159.761719 6.585938 C 159.761719 6.585938 159.15625 6.632812 158.253906 6.75 C 157.355469 6.855469 156.152344 7 154.945312 7.144531 C 153.738281 7.285156 152.535156 7.429688 151.632812 7.539062 C 150.722656 7.636719 150.121094 7.734375 150.121094 7.734375 " fill-opacity="1" fill-rule="nonzero"/><path fill="#ffffff" d="M 136.671875 9.730469 C 136.671875 9.730469 135.605469 10.328125 134.539062 10.929688 C 134.011719 11.226562 133.480469 11.523438 133.085938 11.746094 C 132.695312 11.992188 132.4375 12.152344 132.4375 12.152344 C 136.121094 10.722656 144.953125 8.085938 136.671875 9.730469 " fill-opacity="1" fill-rule="nonzero"/><path fill="#ffffff" d="M 147.925781 13.308594 C 159.085938 10.949219 141.035156 14.035156 152.203125 11.203125 C 148.464844 12.269531 144.15625 13.425781 147.925781 13.308594 " fill-opacity="1" fill-rule="nonzero"/><path fill="#ffffff" d="M 101.710938 26.832031 C 101.710938 26.832031 103.0625 26.082031 105.09375 24.953125 C 106.109375 24.390625 107.289062 23.730469 108.558594 23.023438 C 109.839844 22.332031 111.246094 21.683594 112.628906 20.988281 C 114.023438 20.300781 115.410156 19.609375 116.71875 18.96875 C 118.050781 18.382812 119.292969 17.84375 120.363281 17.375 C 122.5 16.445312 123.925781 15.828125 123.925781 15.828125 C 123.925781 15.828125 121.457031 16.589844 118.996094 17.355469 C 116.507812 18.066406 114.097656 19.003906 114.097656 19.003906 C 114.097656 19.003906 113.304688 19.472656 112.117188 20.179688 C 110.941406 20.90625 109.332031 21.769531 107.808594 22.800781 C 104.761719 24.816406 101.710938 26.832031 101.710938 26.832031 " fill-opacity="1" fill-rule="nonzero"/><path fill="#ffffff" d="M 98.699219 24.167969 C 101.601562 22.578125 106.535156 20.871094 102.628906 23.539062 C 100.445312 24.214844 98.617188 25.113281 96.941406 26.050781 C 95.261719 26.988281 93.730469 27.9375 92.242188 28.921875 C 90.785156 29.960938 89.351562 30.984375 87.800781 31.976562 C 86.242188 32.945312 84.582031 33.90625 82.722656 34.90625 C 82.722656 34.90625 83.113281 34.582031 83.691406 34.101562 C 84.265625 33.617188 85.042969 32.980469 85.855469 32.390625 C 87.460938 31.179688 89.070312 29.972656 89.070312 29.972656 C 88.234375 29.675781 84.804688 32.136719 81.730469 34.722656 C 80.164062 35.976562 78.621094 37.171875 77.390625 37.914062 C 76.203125 38.703125 75.308594 39.019531 74.988281 38.433594 C 71.261719 42.539062 73.257812 41.683594 74.851562 41.058594 C 76.457031 40.421875 77.671875 40.011719 72.613281 44.828125 C 82.542969 36.214844 91.074219 31.320312 100.894531 26.433594 C 97.882812 27.558594 96.785156 28.261719 92.679688 30.175781 C 99.332031 26.042969 108.367188 20.382812 116.832031 16.667969 C 114.195312 16.835938 111.492188 18.082031 108.492188 19.472656 C 105.539062 20.972656 102.355469 22.75 98.699219 24.167969 " fill-opacity="1" fill-rule="nonzero"/><path fill="#ffffff" d="M 65.605469 47.050781 C 59.019531 52.566406 49.808594 62.199219 49.988281 65.347656 C 53.398438 62.382812 55.238281 60.53125 56.363281 58.804688 C 57.511719 57.105469 58.007812 55.617188 59.214844 53.9375 C 60.273438 53.15625 62.371094 51.316406 63.972656 50.074219 C 65.601562 48.855469 66.78125 48.289062 65.816406 49.792969 C 64.570312 50.304688 69.015625 45.09375 65.605469 47.050781 " fill-opacity="1" fill-rule="nonzero"/><path fill="#ffffff" d="M 42.246094 71.34375 C 42.246094 71.34375 41.632812 72.84375 41.015625 74.347656 C 40.695312 75.085938 40.425781 75.855469 40.222656 76.429688 C 40.019531 77 39.882812 77.386719 39.882812 77.386719 C 39.882812 77.386719 40.402344 76.523438 40.921875 75.664062 C 41.476562 74.832031 42.03125 74 42.03125 74 L 43.320312 74.40625 C 43.414062 74.03125 43.464844 72.90625 44.171875 71.035156 C 44.535156 70.109375 45.035156 68.96875 45.835938 67.679688 C 46.660156 66.421875 47.75 64.980469 49.183594 63.378906 C 47.355469 64.753906 46.398438 65.925781 45.5 67.140625 C 44.609375 68.371094 43.835938 69.703125 42.246094 71.34375 " fill-opacity="1" fill-rule="nonzero"/><path fill="#ffffff" d="M 47.910156 78.285156 C 45.804688 80.179688 44.5625 82.011719 43.253906 83.914062 C 42.632812 84.886719 41.984375 85.871094 41.367188 87.015625 C 40.761719 88.164062 40.105469 89.402344 39.351562 90.820312 C 41.605469 86.992188 44.714844 82.609375 47.375 78.855469 C 50.128906 75.167969 52.363281 72.054688 53.011719 70.855469 L 52.796875 71.585938 C 52.796875 71.585938 53.96875 69.828125 55.5625 67.453125 C 57.117188 65.027344 59.292969 62.140625 60.890625 59.511719 C 59.523438 61.390625 57.714844 63.445312 55.835938 65.496094 C 54.035156 67.609375 52.210938 69.753906 50.625 71.617188 C 47.640625 75.503906 45.824219 78.386719 47.910156 78.285156 " fill-opacity="1" fill-rule="nonzero"/><path fill="#ffffff" d="M 55.222656 69.601562 C 55.222656 69.601562 54.359375 70.992188 53.496094 72.378906 C 52.609375 73.746094 51.839844 75.191406 51.839844 75.191406 C 51.839844 75.191406 52.609375 73.746094 53.496094 72.378906 C 54.359375 70.992188 55.222656 69.601562 55.222656 69.601562 " fill-opacity="1" fill-rule="nonzero"/><path fill="#ffffff" d="M 27.777344 93.632812 C 27.777344 93.632812 28.214844 92.9375 28.875 91.898438 C 29.542969 90.859375 30.390625 89.457031 31.363281 88.128906 C 33.257812 85.449219 35.148438 82.769531 35.148438 82.769531 L 32.964844 85.171875 C 32.964844 85.171875 31.617188 87.257812 30.269531 89.339844 C 29.019531 91.484375 27.777344 93.632812 27.777344 93.632812 " fill-opacity="1" fill-rule="nonzero"/><path fill="#ffffff" d="M 40.511719 83.378906 C 37.488281 87.515625 38.648438 86.601562 39.714844 85.554688 C 40.269531 85.042969 40.882812 84.558594 40.980469 84.65625 C 41.085938 84.769531 40.660156 85.457031 39.382812 87.480469 C 38.773438 88.625 40.597656 85.632812 42.8125 82.390625 C 44.90625 79.054688 47.429688 75.5 47.339844 74.929688 C 46.464844 75.84375 45.058594 77.847656 43.882812 79.789062 C 42.660156 81.695312 41.425781 83.367188 40.511719 83.378906 " fill-opacity="1" fill-rule="nonzero"/><path fill="#ffffff" d="M 23.570312 101.113281 C 23.570312 101.113281 23.335938 101.753906 22.988281 102.710938 C 22.648438 103.675781 22.132812 104.925781 21.753906 106.238281 C 20.945312 108.828125 20.140625 111.417969 20.140625 111.417969 C 20.140625 111.417969 20.945312 108.828125 21.753906 106.238281 C 22.132812 104.925781 22.648438 103.675781 22.988281 102.710938 C 23.335938 101.753906 23.570312 101.113281 23.570312 101.113281 " fill-opacity="1" fill-rule="nonzero"/><g clip-path="url(#2fbbe1253d)"><path fill="#ffffff" d="M 12.289062 125.753906 L 12.503906 128.078125 C 10.535156 132.949219 8.988281 138.933594 7.75 144.597656 C 7.023438 147.410156 6.558594 150.183594 5.917969 152.679688 C 5.605469 153.925781 5.273438 155.113281 4.914062 156.210938 C 4.605469 157.320312 4.277344 158.34375 3.898438 159.261719 C 5.320312 157.65625 5.648438 163.867188 7.328125 154.859375 C 6.964844 153.363281 7.554688 150.121094 6.730469 150.511719 C 7.640625 146.675781 8.332031 147.644531 9.238281 145.175781 C 9.550781 138.328125 13.347656 128.527344 14.308594 123.132812 C 13.640625 125.722656 13.234375 126.253906 12.503906 128.078125 C 13.035156 125.222656 13.722656 123.027344 14.421875 121.273438 C 15.210938 119.546875 16.003906 118.253906 16.6875 117.140625 C 18.058594 114.914062 18.957031 113.410156 18.789062 110.570312 C 18.273438 112.582031 17.054688 115.066406 15.699219 117.695312 C 15.03125 119.011719 14.277344 120.347656 13.703125 121.714844 C 13.132812 123.085938 12.628906 124.449219 12.289062 125.753906 " fill-opacity="1" fill-rule="nonzero"/></g><path fill="#ffffff" d="M 18.6875 126.933594 C 18.6875 126.933594 19.457031 124.828125 20.316406 122.757812 C 21.21875 120.707031 22.125 118.65625 22.125 118.65625 C 22.230469 120.195312 21.136719 122.683594 20.351562 125.121094 C 19.535156 127.542969 18.757812 129.808594 19.074219 130.675781 C 19.953125 130.378906 23.097656 122.175781 22.550781 125.402344 C 20.074219 123.363281 26.804688 114.09375 22.046875 117.144531 C 22.984375 114.382812 23.839844 112.921875 24.386719 111.996094 C 24.964844 111.078125 25.371094 110.75 25.785156 110.410156 C 26.644531 109.738281 27.40625 108.945312 30.148438 103.527344 L 30.332031 99.734375 C 28.953125 102.867188 27.777344 105.289062 26.703125 107.378906 C 25.730469 109.519531 24.839844 111.304688 23.949219 113.097656 C 23.019531 114.871094 22.246094 116.714844 21.375 118.902344 C 20.492188 121.085938 19.535156 123.621094 18.6875 126.933594 " fill-opacity="1" fill-rule="nonzero"/><path fill="#ffffff" d="M 10.328125 160.5 L 8.8125 164.726562 L 10.484375 162.535156 C 10.34375 163.777344 10.183594 164.980469 10.003906 166.152344 C 9.882812 167.335938 9.75 168.484375 9.597656 169.605469 C 9.320312 171.847656 8.890625 173.972656 8.582031 176.015625 C 8.039062 180.105469 7.121094 183.84375 6.65625 187.371094 C 6.097656 190.898438 5.523438 194.214844 5.417969 197.417969 C 5.332031 199.019531 5.296875 200.589844 5.339844 202.148438 C 5.375 203.707031 5.625 205.234375 5.902344 206.757812 C 6.386719 208.648438 6.757812 210.527344 7.140625 212.390625 C 7.574219 214.246094 7.953125 216.089844 8.285156 217.941406 L 8.757812 220.714844 L 9.300781 223.46875 L 10.304688 228.992188 C 11.804688 236.324219 13.386719 243.796875 16.488281 251.09375 C 20.421875 257.808594 14.375 243.976562 15.019531 242.917969 C 16.496094 243.574219 16.726562 245.445312 17.132812 247.460938 C 17.539062 249.472656 17.972656 251.691406 19.511719 252.984375 C 20.503906 253.109375 19.367188 249.261719 18.042969 244.507812 C 17.425781 242.125 16.746094 239.507812 16.109375 237.085938 C 15.605469 234.632812 15.171875 232.375 14.964844 230.71875 C 14.019531 227.988281 13.636719 226.621094 13.121094 225.800781 C 12.636719 224.964844 12.1875 224.640625 11.519531 223.882812 C 11.832031 223.058594 11.652344 221.214844 11.632812 219.351562 C 11.613281 217.484375 11.597656 215.625 11.933594 214.828125 C 11.023438 211.945312 10.613281 209.332031 10.34375 206.890625 C 10.058594 204.449219 9.878906 202.175781 9.902344 199.898438 C 9.878906 197.621094 9.808594 195.359375 9.691406 192.9375 C 9.640625 190.511719 9.464844 187.925781 9.03125 184.980469 C 10.21875 181.308594 9.507812 193.785156 9.597656 189.890625 C 9.597656 189.890625 9.546875 188.289062 9.503906 186.683594 C 9.476562 185.882812 9.453125 185.078125 9.433594 184.476562 C 9.441406 183.875 9.445312 183.476562 9.445312 183.476562 L 9.222656 184.152344 C 8.953125 181.96875 8.847656 179.308594 8.863281 176.46875 C 8.886719 173.628906 9.269531 170.621094 9.585938 167.710938 C 10.421875 161.921875 11.65625 156.597656 12.640625 153.929688 C 12.035156 156.050781 11.335938 157.828125 10.917969 158.441406 C 10.492188 159.058594 10.105469 158.460938 10.367188 155.847656 L 12.59375 151.890625 C 12.59375 151.890625 12.582031 151.171875 12.566406 150.09375 C 12.527344 149.015625 12.5625 147.585938 12.628906 146.152344 C 12.738281 143.269531 12.847656 140.386719 12.847656 140.386719 C 12.714844 142.582031 12.292969 144.78125 11.785156 146.894531 C 11.238281 149 10.828125 151.0625 10.371094 152.902344 C 9.449219 156.578125 9.070312 159.484375 10.328125 160.5 " fill-opacity="1" fill-rule="nonzero"/><path fill="#ffffff" d="M 14.996094 148.75 C 16.867188 142.402344 16.238281 142.660156 15.636719 142.753906 C 15.335938 142.796875 15.035156 142.8125 15.0625 141.925781 C 15.082031 141.488281 15.15625 140.816406 15.398438 139.828125 C 15.660156 138.84375 16.0625 137.539062 16.644531 135.804688 C 16.644531 135.804688 16.390625 136.730469 16.011719 138.125 C 15.59375 139.503906 15.171875 141.378906 14.769531 143.261719 C 14.355469 145.140625 13.941406 147.015625 13.628906 148.425781 C 13.378906 149.84375 13.21875 150.792969 13.21875 150.792969 C 13.21875 150.792969 13.660156 150.28125 14.101562 149.765625 C 14.542969 149.25 14.996094 148.75 14.996094 148.75 " fill-opacity="1" fill-rule="nonzero"/><path fill="#ffffff" d="M 9.839844 212.203125 L 10.011719 218.964844 C 10.722656 216.96875 9.917969 213.539062 9.335938 211.449219 C 8.859375 209.34375 8.457031 208.640625 9.839844 212.203125 " fill-opacity="1" fill-rule="nonzero"/><path fill="#ffffff" d="M 15.34375 236.179688 L 12.535156 233.296875 C 12.535156 233.296875 13.226562 234.75 13.921875 236.203125 C 14.582031 237.65625 15.363281 239.0625 15.363281 239.0625 C 15.363281 239.0625 15.34375 238.347656 15.320312 237.628906 C 15.332031 236.902344 15.34375 236.179688 15.34375 236.179688 " fill-opacity="1" fill-rule="nonzero"/><path fill="#ffffff" d="M 21.082031 258.152344 C 22.570312 260.257812 22.871094 259.839844 22.480469 258.253906 C 22.085938 256.671875 20.964844 253.9375 19.839844 251.25 C 20.308594 252.476562 20.660156 253.585938 20.9375 254.527344 C 21.253906 255.453125 21.460938 256.234375 21.574219 256.839844 C 21.792969 258.050781 21.621094 258.5625 21.082031 258.152344 " fill-opacity="1" fill-rule="nonzero"/><path fill="#ffffff" d="M 36.789062 292.71875 C 33.402344 287.960938 34.804688 290.132812 36.277344 292.78125 C 37.714844 295.445312 39.40625 298.492188 36.160156 295.628906 C 36.90625 296.035156 38.472656 297.199219 39.101562 297.34375 C 39.414062 297.414062 39.507812 297.226562 39.171875 296.542969 C 39.003906 296.203125 38.726562 295.738281 38.324219 295.125 C 37.941406 294.492188 37.441406 293.699219 36.789062 292.71875 " fill-opacity="1" fill-rule="nonzero"/><path fill="#ffffff" d="M 58.84375 324.269531 C 55.453125 321.550781 54.410156 320.082031 54.316406 319.347656 C 56.554688 321.539062 58.292969 323.347656 58.84375 324.269531 " fill-opacity="1" fill-rule="nonzero"/><g clip-path="url(#3a529f7258)"><path fill="#ffffff" d="M 3.265625 192.042969 C 3.222656 190.714844 3.1875 189.28125 3.210938 187.972656 C 3.230469 189.363281 3.25 190.667969 3.265625 192.042969 " fill-opacity="1" fill-rule="nonzero"/></g><g clip-path="url(#c65dfc1f94)"><path fill="#ffffff" d="M 3.34375 194.699219 C 3.269531 193.824219 3.277344 192.925781 3.265625 192.042969 C 3.292969 193.042969 3.292969 193.929688 3.34375 194.699219 " fill-opacity="1" fill-rule="nonzero"/></g><path fill="#ffffff" d="M 24.308594 278.566406 C 24.292969 278.535156 24.292969 278.535156 24.285156 278.53125 C 24.183594 278.226562 24.074219 277.949219 23.980469 277.636719 L 24.308594 278.566406 " fill-opacity="1" fill-rule="nonzero"/><path fill="#ffffff" d="M 169.632812 2.269531 C 171.859375 2.003906 173.59375 1.839844 174.984375 1.746094 C 173.21875 1.925781 171.441406 2.105469 169.695312 2.277344 C 169.65625 2.277344 169.65625 2.273438 169.632812 2.269531 " fill-opacity="1" fill-rule="nonzero"/><path fill="#ffffff" d="M 175.992188 4.457031 C 171.378906 5.457031 168.839844 4.796875 165.542969 4.515625 C 163.890625 4.339844 162.046875 4.179688 159.671875 4.234375 C 157.296875 4.347656 154.410156 4.816406 150.683594 5.691406 C 153.699219 5.042969 156.785156 4.296875 159.960938 3.726562 C 163.148438 3.25 166.390625 2.621094 169.695312 2.277344 C 178.574219 3.523438 163.078125 3.800781 175.992188 4.457031 " fill-opacity="1" fill-rule="nonzero"/><path fill="#ffffff" d="M 64.097656 55.480469 C 63.976562 55.625 63.878906 55.742188 63.761719 55.882812 C 63.152344 56.554688 63.445312 56.1875 64.097656 55.480469 " fill-opacity="1" fill-rule="nonzero"/><path fill="#ffffff" d="M 331.71875 294.664062 L 332.085938 295.054688 C 332.085938 295.054688 330.644531 296.621094 329.207031 298.179688 C 328.484375 298.953125 327.765625 299.734375 327.226562 300.316406 C 326.660156 300.875 326.28125 301.25 326.28125 301.25 C 326.28125 301.25 326.636719 300.851562 327.167969 300.253906 C 327.675781 299.628906 328.351562 298.804688 329.027344 297.980469 C 330.375 296.324219 331.71875 294.664062 331.71875 294.664062 " fill-opacity="1" fill-rule="nonzero"/><path fill="#ffffff" d="M 333.203125 294.320312 C 333.203125 294.320312 333.355469 294.152344 333.621094 293.855469 C 333.867188 293.550781 334.230469 293.113281 334.660156 292.59375 C 335.519531 291.542969 336.667969 290.144531 337.816406 288.746094 C 339 287.363281 340.070312 285.902344 340.878906 284.808594 C 341.691406 283.710938 342.230469 282.984375 342.230469 282.984375 C 342.230469 282.984375 341.507812 284.117188 340.246094 286.101562 C 339.007812 288.097656 336.988281 290.789062 334.6875 294.097656 C 329.875 300.558594 322.992188 308.855469 315.296875 316.367188 C 307.644531 323.925781 299.25 330.714844 292.609375 335.300781 C 289.371094 337.714844 286.460938 339.414062 284.507812 340.726562 C 282.546875 342.023438 281.371094 342.683594 281.371094 342.683594 C 281.371094 342.683594 281.878906 342.175781 282.382812 341.667969 C 282.878906 341.136719 283.367188 340.605469 283.367188 340.605469 C 283.179688 340.582031 283.976562 339.972656 285.503906 338.925781 C 287.027344 337.863281 289.328125 336.433594 291.953125 334.46875 C 293.289062 333.519531 294.734375 332.484375 296.269531 331.386719 C 297.753906 330.226562 299.324219 329.003906 300.949219 327.734375 C 301.761719 327.101562 302.585938 326.453125 303.421875 325.800781 C 304.226562 325.109375 305.039062 324.40625 305.859375 323.703125 C 307.484375 322.28125 309.199219 320.898438 310.804688 319.398438 C 317.304688 313.492188 323.25 307.0625 327.351562 302.164062 C 331.394531 297.222656 333.738281 293.933594 333.203125 294.320312 " fill-opacity="1" fill-rule="nonzero"/><path fill="#ffffff" d="M 334.933594 290.5 C 335.679688 288.496094 336.617188 286.859375 337.589844 285.3125 C 338.53125 283.75 339.578125 282.328125 340.6875 280.863281 C 341.234375 280.128906 341.792969 279.382812 342.371094 278.609375 C 342.898438 277.8125 343.433594 276.980469 343.960938 276.09375 C 344.988281 274.308594 346.082031 272.347656 346.914062 269.929688 C 345.777344 273.136719 344.738281 275.882812 343.625 278.558594 C 342.433594 281.191406 340.96875 283.644531 338.980469 286.257812 C 338.980469 286.257812 338.753906 286.539062 338.367188 286.9375 C 337.988281 287.332031 337.476562 287.863281 336.964844 288.394531 C 335.949219 289.449219 334.933594 290.5 334.933594 290.5 " fill-opacity="1" fill-rule="nonzero"/><path stroke-linecap="round" transform="matrix(0.106178, 0, 0, -0.106178, 3.202666, 374.82976)" fill="none" stroke-linejoin="round" d="M 3227.30299 1040.353187 C 3232.968597 1049.219494 3238.376675 1058.821593 3242.975382 1068.754799 C 3247.316561 1078.798374 3251.216264 1088.989108 3254.932019 1098.664786 C 3262.17958 1118.089723 3268.728139 1135.233701 3274.651273 1145.534803 C 3279.286769 1135.748756 3271.597731 1117.206771 3261.18626 1097.15641 C 3255.88855 1087.112835 3249.855047 1076.664574 3244.079072 1066.841737 C 3237.89841 1057.129269 3231.864907 1048.079014 3227.30299 1040.353187 Z M 3227.30299 1040.353187 " stroke="#000000" stroke-width="1.2" stroke-opacity="1" stroke-miterlimit="4"/><path fill="#ffffff" d="M 345.054688 251.070312 C 345.265625 250.433594 345.511719 249.824219 345.765625 249.214844 C 345.574219 249.984375 345.410156 250.691406 345.3125 251.234375 L 345.054688 251.070312 " fill-opacity="1" fill-rule="nonzero"/><path fill="#ffffff" d="M 345.3125 251.234375 L 345.957031 251.628906 C 345.109375 252.796875 345.058594 252.34375 345.3125 251.234375 " fill-opacity="1" fill-rule="nonzero"/><path fill="#ffffff" d="M 345.765625 249.214844 C 346.191406 247.480469 346.726562 245.441406 346.832031 244.328125 L 346.054688 245.992188 C 346.867188 243.609375 347.644531 239.226562 348.433594 238.25 C 346.738281 242.863281 347.214844 243.121094 348.140625 243.617188 L 350.863281 236.035156 C 352.710938 238.226562 348.648438 242.699219 345.765625 249.214844 " fill-opacity="1" fill-rule="nonzero"/><path stroke-linecap="round" transform="matrix(0.106178, 0, 0, -0.106178, 3.202666, 374.82976)" fill="none" stroke-linejoin="round" d="M 3294.444105 1411.965465 C 3294.444105 1411.965465 3294.186578 1406.998862 3293.781892 1399.604142 C 3293.597943 1392.099053 3292.420675 1382.386584 3291.390564 1372.526958 C 3289.330344 1352.807704 3287.233334 1333.08845 3287.233334 1333.08845 C 3278.07271 1324.553251 3278.14629 1337.39284 3281.494148 1355.603718 C 3284.915586 1373.851385 3291.611302 1397.69108 3294.444105 1411.965465 Z M 3294.444105 1411.965465 " stroke="#000000" stroke-width="1.2" stroke-opacity="1" stroke-miterlimit="4"/><path fill="#ffffff" d="M 357.054688 213.289062 C 357.085938 214.277344 356.714844 216.765625 356.519531 218.417969 C 356.304688 220.0625 356.25 220.875 357.0625 218.523438 C 357.121094 219.898438 356.648438 221.414062 356.28125 223.050781 C 357.140625 217.59375 354.527344 222.335938 357.054688 213.289062 " fill-opacity="1" fill-rule="nonzero"/><path fill="#ffffff" d="M 356.28125 223.050781 C 356.171875 223.695312 356.042969 224.414062 355.820312 225.371094 C 355.933594 224.582031 356.101562 223.800781 356.28125 223.050781 " fill-opacity="1" fill-rule="nonzero"/><path stroke-linecap="round" transform="matrix(0.106178, 0, 0, -0.106178, 3.202666, 374.82976)" fill="none" stroke-linejoin="round" d="M 2994.608439 664.988365 C 3002.444635 671.242606 3003.511535 669.881389 3001.92958 665.50342 Z M 2994.608439 664.988365 " stroke="#000000" stroke-width="1.2" stroke-opacity="1" stroke-miterlimit="4"/><path fill="#ffffff" d="M 360.566406 196.875 L 360.820312 193.734375 C 360.75 194.632812 360.71875 195.46875 360.695312 196.273438 L 360.566406 196.875 " fill-opacity="1" fill-rule="nonzero"/><g clip-path="url(#99620b3959)"><path fill="#ffffff" d="M 186.753906 371.960938 C 189.714844 371.988281 192.636719 372.019531 195.621094 372.046875 C 198.601562 371.992188 201.652344 371.777344 204.863281 371.574219 C 208.0625 371.308594 211.414062 370.789062 215.019531 370.269531 C 216.816406 369.949219 218.660156 369.535156 220.585938 369.117188 C 222.503906 368.683594 224.511719 368.289062 226.558594 367.65625 C 225.789062 365.976562 233.136719 365.648438 233.605469 363.535156 C 225.097656 365.636719 241.273438 362.046875 256.710938 355.203125 C 258.667969 354.429688 260.546875 353.453125 262.414062 352.5625 C 264.261719 351.636719 266.125 350.828125 267.8125 349.871094 C 271.195312 347.96875 274.320312 346.371094 276.628906 344.824219 C 281.308594 341.855469 283.40625 340.378906 280.316406 341.925781 L 277.136719 344.710938 L 279.914062 340.949219 C 287.203125 337.171875 297.421875 331.835938 301.074219 327.34375 C 301.273438 327.28125 300.554688 327.917969 299.148438 329.078125 C 298.445312 329.652344 297.570312 330.363281 296.554688 331.183594 C 295.503906 331.953125 294.300781 332.828125 292.984375 333.78125 C 287.777344 337.6875 280.277344 342.328125 272.566406 346.488281 C 264.863281 350.679688 256.773438 353.992188 250.851562 356.320312 C 244.871094 358.496094 241.070312 359.773438 241.765625 359.703125 C 240.925781 359.699219 241.722656 359.179688 243.75 358.277344 C 245.761719 357.339844 249.066406 356.1875 253.058594 354.355469 C 261.121094 350.9375 272.203125 345.535156 282.71875 338.691406 C 293.285156 331.933594 303.222656 323.78125 310.273438 316.953125 C 312.019531 315.226562 313.644531 313.644531 315.066406 312.1875 C 316.433594 310.683594 317.640625 309.351562 318.652344 308.234375 C 320.695312 306.007812 321.816406 304.496094 321.941406 304.167969 L 323.539062 304.070312 C 325.398438 301.476562 327.042969 299.089844 328.40625 296.71875 C 329.796875 294.375 331.140625 292.230469 332.246094 290 C 333.382812 287.796875 334.5625 285.707031 335.648438 283.519531 C 336.71875 281.324219 337.832031 279.113281 339.074219 276.8125 L 341.445312 275.460938 C 337.050781 281.828125 336.722656 284.09375 332.574219 290.898438 C 336.484375 285.238281 338.792969 281.894531 340.871094 278.882812 C 341.921875 277.382812 342.789062 275.890625 343.800781 274.246094 C 344.78125 272.585938 345.910156 270.777344 347.003906 268.378906 C 346.113281 268.125 344.929688 270.035156 344.527344 270.441406 C 344.164062 270.871094 344.722656 269.863281 347.238281 263.792969 C 348.441406 262.273438 348.488281 263.671875 348.859375 264.132812 C 349.207031 264.578125 350.023438 264.132812 352.261719 258.625 C 358.328125 245.578125 354.75 247.253906 358.402344 235.488281 C 358.402344 235.488281 357.714844 237.457031 356.855469 239.363281 C 356.027344 241.273438 355.207031 243.183594 355.207031 243.183594 C 356.671875 238.882812 358.707031 230.703125 360.597656 226.664062 C 360.050781 229.183594 358.875 233.589844 358.292969 237.476562 C 357.507812 241.300781 357.121094 244.570312 358.03125 244.691406 C 359.511719 239.597656 363.382812 228.515625 364.167969 223.929688 L 364.75 226.972656 C 365.878906 224.617188 366.25 222.625 366.496094 220.453125 C 366.722656 218.273438 366.960938 215.941406 368.0625 212.84375 C 368.152344 209.773438 367.546875 210.628906 366.976562 211.804688 C 366.363281 212.984375 365.671875 214.46875 365.71875 212.773438 C 366.09375 212.203125 366.710938 209.023438 367.304688 205.46875 C 367.445312 204.578125 367.59375 203.667969 367.699219 202.765625 C 367.773438 201.859375 367.835938 200.96875 367.878906 200.121094 C 367.960938 198.429688 367.960938 196.929688 367.832031 195.902344 C 367.121094 196.570312 366.746094 197.769531 366.539062 199.300781 C 366.320312 200.835938 366.335938 202.714844 366.140625 204.722656 C 365.992188 206.734375 365.820312 208.890625 365.476562 210.984375 C 365.113281 213.074219 364.417969 215.078125 363.480469 216.785156 C 363.480469 216.785156 364.074219 214.097656 364.664062 211.414062 C 365.128906 208.703125 365.589844 205.992188 365.589844 205.992188 C 364.730469 202.417969 364.183594 206.765625 363.65625 211.523438 C 362.890625 216.246094 362.105469 221.398438 361.390625 219.441406 C 360.765625 215.164062 362.242188 211.167969 363.230469 207.066406 C 364.398438 203.007812 365.109375 198.878906 363.675781 194.996094 C 363.140625 197.476562 362.675781 202.707031 361.804688 206.992188 C 361.117188 211.304688 360.164062 214.660156 359.890625 213.578125 C 360.925781 210.910156 360.917969 208.457031 360.898438 205.769531 C 360.859375 204.417969 360.859375 203.011719 360.773438 201.453125 C 360.6875 199.894531 360.632812 198.1875 360.695312 196.273438 C 360.695312 196.273438 360.816406 195.695312 360.996094 194.832031 C 361.195312 193.976562 361.417969 192.820312 361.574219 191.660156 C 361.9375 189.335938 362.304688 187.007812 362.304688 187.007812 C 361.578125 183.050781 361.484375 186.242188 360.867188 189.300781 C 361.945312 182.5 361.527344 173.253906 360.386719 163.4375 C 359.226562 153.601562 357.140625 143.226562 355.164062 133.675781 C 351.292969 122.855469 353.648438 132.644531 351.136719 128.003906 C 351.007812 124.847656 349.511719 121.019531 347.890625 117.234375 C 347.066406 115.34375 346.050781 113.535156 345.179688 111.800781 C 344.304688 110.0625 343.488281 108.4375 342.738281 107.046875 C 341.980469 105.316406 339.058594 103.039062 339.304688 104.925781 C 339.304688 104.925781 339.808594 105.773438 340.558594 107.042969 C 341.324219 108.308594 342.335938 109.996094 343.222656 111.753906 C 344.144531 113.5 345.070312 115.242188 345.765625 116.550781 C 346.445312 117.871094 346.835938 118.777344 346.835938 118.777344 C 345.765625 118.398438 345.375 121.039062 347.53125 126.171875 C 347.945312 124.992188 348.480469 125.746094 349.109375 127.546875 C 349.425781 128.453125 349.765625 129.609375 350.121094 130.914062 C 350.496094 132.21875 350.867188 133.671875 351.160156 135.1875 C 352.5625 141.1875 353.574219 147.851562 355.425781 148.046875 L 353.828125 148.15625 C 353.828125 148.15625 353.914062 148.457031 354.066406 148.980469 C 354.234375 149.503906 354.421875 150.257812 354.625 151.175781 C 355.054688 153 355.625 155.441406 356.199219 157.875 C 356.65625 160.34375 357.105469 162.808594 357.445312 164.660156 C 357.613281 165.585938 357.753906 166.359375 357.847656 166.898438 C 357.921875 167.449219 357.957031 167.757812 357.957031 167.757812 L 358.128906 167.144531 C 357.824219 167.132812 358.53125 171.328125 359.054688 176.96875 C 359.207031 179.792969 359.550781 182.976562 359.492188 186.148438 C 359.472656 187.738281 359.4375 189.320312 359.375 190.855469 C 359.339844 191.625 359.304688 192.378906 359.269531 193.117188 C 359.191406 193.851562 359.097656 194.566406 359.007812 195.257812 C 359.007812 193.644531 359.015625 188.199219 359.019531 184.511719 C 358.816406 180.820312 358.476562 178.945312 357.746094 184.390625 C 357.472656 182.34375 357.324219 179.90625 357.253906 177.152344 C 357.207031 174.398438 356.921875 171.355469 356.792969 168.082031 C 356.574219 164.8125 356.160156 161.351562 355.71875 157.777344 C 355.394531 156.007812 355.066406 154.207031 354.734375 152.394531 C 354.554688 151.492188 354.390625 150.578125 354.183594 149.675781 L 353.453125 146.976562 L 353.0625 150.027344 C 350.691406 142.570312 348.46875 133.882812 345.507812 125.125 C 342.589844 116.371094 338.777344 107.644531 334.367188 100.226562 C 334.367188 100.226562 335.324219 101.160156 336.28125 102.097656 C 336.765625 102.566406 337.238281 103.039062 337.570312 103.414062 C 337.910156 103.777344 338.140625 104.027344 338.140625 104.027344 C 336.992188 101.171875 335.53125 97.964844 333.996094 94.828125 C 332.269531 91.816406 330.503906 88.851562 328.292969 86.863281 C 332.519531 93.023438 329.648438 90.296875 328.449219 89.507812 C 326.878906 87.546875 325.152344 85.359375 323.402344 82.9375 C 321.554688 80.589844 319.613281 78.054688 317.542969 75.476562 C 315.359375 72.996094 313.265625 70.269531 310.816406 67.839844 L 307.207031 64.121094 C 305.945312 62.941406 304.65625 61.800781 303.378906 60.671875 C 303.378906 60.671875 304.074219 60.90625 303.800781 60.34375 C 303.800781 60.34375 301.09375 57.992188 298.203125 55.878906 C 296.773438 54.804688 295.382812 53.683594 294.28125 52.921875 C 293.175781 52.15625 292.441406 51.652344 292.441406 51.652344 C 287.347656 47.234375 285.839844 45.367188 282.992188 42.089844 C 280.769531 40.871094 275.546875 37.511719 277.085938 39.511719 C 278.167969 40.300781 279.246094 41.082031 280.027344 41.488281 C 273.109375 38.921875 276.019531 38.328125 267.679688 34.660156 C 274.414062 36.964844 266.710938 31.890625 268.015625 31.152344 C 258.183594 26.777344 266.039062 32.863281 264.53125 32.796875 C 263.15625 31.960938 261.929688 31.214844 260.8125 30.539062 C 259.675781 29.894531 258.65625 29.308594 257.710938 28.769531 C 255.820312 27.691406 254.277344 26.660156 252.65625 25.804688 C 249.410156 24.078125 246.148438 22.292969 239.964844 20.160156 C 239.480469 20.4375 241.625 21.316406 243.980469 22.273438 C 246.359375 23.175781 248.820312 24.476562 249.171875 25.078125 C 245.855469 23.433594 241.683594 22.214844 240.957031 22.28125 C 240.957031 22.28125 242.785156 23.074219 244.605469 23.867188 C 245.523438 24.234375 246.398438 24.722656 247.070312 25.039062 C 247.738281 25.371094 248.183594 25.59375 248.183594 25.59375 C 245.183594 24.054688 242.0625 22.910156 238.960938 21.660156 C 235.839844 20.460938 232.617188 19.539062 229.371094 18.539062 C 222.789062 16.875 215.917969 15.457031 208.449219 14.941406 L 209.558594 15.511719 C 209.558594 15.511719 207.265625 15.210938 204.976562 14.90625 C 203.832031 14.734375 202.675781 14.703125 201.8125 14.613281 C 200.949219 14.546875 200.375 14.496094 200.375 14.496094 L 203.839844 13.191406 C 201.316406 13.199219 198.738281 12.753906 196.433594 12.4375 C 194.128906 12.152344 192.089844 12.128906 190.734375 12.703125 L 192.582031 12.863281 C 192.582031 12.863281 191.007812 12.945312 189.433594 13.03125 C 188.648438 13.074219 187.859375 13.117188 187.277344 13.148438 C 186.6875 13.167969 186.292969 13.222656 186.292969 13.222656 C 186.292969 13.222656 186.695312 13.105469 187.300781 12.984375 C 187.910156 12.855469 188.71875 12.679688 189.527344 12.507812 C 191.164062 12.160156 192.796875 11.8125 192.796875 11.8125 C 190.789062 11.609375 188.582031 11.589844 186.207031 11.789062 C 183.832031 12.054688 181.296875 12.449219 178.617188 12.859375 C 175.945312 13.335938 173.140625 13.960938 170.199219 14.417969 C 167.265625 14.957031 164.214844 15.566406 161.003906 15.882812 C 160.234375 15.445312 161.226562 15.007812 163.179688 14.546875 C 164.152344 14.320312 165.367188 14.082031 166.726562 13.835938 C 168.074219 13.585938 169.566406 13.332031 171.105469 13.179688 C 172.640625 12.988281 174.210938 12.792969 175.71875 12.601562 C 176.46875 12.492188 177.207031 12.386719 177.914062 12.28125 C 178.625 12.195312 179.304688 12.117188 179.949219 12.042969 C 182.507812 11.6875 184.40625 11.210938 184.820312 10.515625 C 182.648438 10.375 179.671875 10.160156 176.929688 10.238281 C 174.183594 10.371094 171.652344 10.632812 170.371094 11.09375 C 170.96875 11.789062 174.082031 11.570312 177.21875 11.339844 C 174.375 11.945312 171.164062 12.21875 167.851562 12.621094 C 166.199219 12.820312 164.519531 13.027344 162.835938 13.234375 C 161.996094 13.332031 161.15625 13.425781 160.316406 13.519531 C 159.488281 13.65625 158.660156 13.792969 157.84375 13.925781 C 154.574219 14.460938 151.421875 14.960938 148.734375 15.800781 C 146.035156 16.597656 143.722656 17.359375 142.160156 18.484375 C 142.160156 18.484375 142.6875 18.386719 143.480469 18.246094 C 144.273438 18.109375 145.347656 18.007812 146.414062 17.859375 C 148.539062 17.59375 150.664062 17.328125 150.664062 17.328125 C 148.265625 17.957031 146.035156 18.335938 143.992188 18.597656 C 141.972656 18.960938 140.128906 19.1875 138.488281 19.398438 C 135.191406 19.761719 132.785156 20.339844 131.441406 21.597656 C 131.441406 21.597656 133.101562 20.320312 134.757812 19.042969 C 136.449219 17.8125 138.191406 16.636719 138.191406 16.636719 C 136.992188 17.128906 135.753906 17.636719 134.488281 18.160156 C 133.238281 18.710938 131.949219 19.257812 130.636719 19.792969 C 129.328125 20.324219 128 20.859375 126.664062 21.402344 C 125.347656 21.988281 124.027344 22.574219 122.710938 23.15625 C 121.394531 23.75 120.066406 24.285156 118.796875 24.910156 C 117.535156 25.550781 116.285156 26.183594 115.066406 26.804688 C 113.851562 27.4375 112.660156 28.035156 111.539062 28.675781 C 110.429688 29.347656 109.367188 30.011719 108.367188 30.667969 C 108.492188 31.046875 109.320312 30.84375 110.472656 30.332031 C 111.050781 30.082031 111.707031 29.742188 112.414062 29.382812 C 113.128906 29.046875 113.886719 28.667969 114.636719 28.285156 C 117.632812 26.742188 120.535156 25.066406 120.304688 25.378906 C 120.304688 25.378906 120.070312 25.550781 119.714844 25.808594 C 119.371094 26.082031 118.914062 26.441406 118.457031 26.808594 C 117.542969 27.53125 116.628906 28.257812 116.628906 28.257812 C 114.902344 28.902344 113.539062 29.40625 112.453125 29.808594 C 111.378906 30.246094 110.570312 30.574219 109.9375 30.832031 C 108.65625 31.324219 108.039062 31.496094 107.34375 31.71875 C 106.648438 31.949219 105.847656 32.1875 104.230469 32.890625 C 102.640625 33.664062 100.171875 34.796875 96.199219 36.925781 L 96.613281 37.910156 C 95.144531 38.378906 93.296875 39.4375 91.410156 40.667969 C 89.515625 41.890625 87.710938 43.46875 86.128906 44.691406 C 82.960938 47.132812 81.132812 48.867188 82.628906 45.835938 C 82.628906 45.835938 82.894531 45.683594 83.296875 45.449219 C 83.707031 45.234375 84.253906 44.945312 84.800781 44.660156 C 85.894531 44.082031 86.984375 43.503906 86.984375 43.503906 L 85.910156 42.71875 C 85.910156 42.71875 84.875 43.519531 83.324219 44.71875 C 81.796875 45.949219 79.835938 47.683594 77.847656 49.367188 C 75.832031 51.019531 74.015625 52.910156 72.566406 54.21875 C 71.851562 54.886719 71.261719 55.445312 70.84375 55.835938 C 70.425781 56.21875 70.203125 56.457031 70.203125 56.457031 C 71.046875 54.351562 63.921875 61.527344 65.003906 58.765625 C 65.003906 58.765625 64.703125 59.144531 64.25 59.726562 C 63.792969 60.296875 63.1875 61.0625 62.636719 61.875 C 61.503906 63.472656 60.378906 65.0625 60.378906 65.0625 C 58.519531 65.730469 60.535156 62.753906 63.101562 59.472656 C 65.75 56.285156 68.851562 52.707031 68.761719 51.980469 C 67.972656 51.507812 65.320312 54.128906 64.097656 55.480469 C 70.140625 47.9375 75.847656 47.347656 83.320312 41.832031 L 86.46875 38.195312 L 87.15625 39.644531 C 90.144531 37.179688 92.464844 34.601562 93.285156 33.285156 C 95.503906 32.449219 97.730469 31.578125 99.875 30.378906 C 102.015625 29.167969 104.242188 27.917969 106.582031 26.554688 C 107.75 25.863281 108.949219 25.152344 110.1875 24.421875 C 111.460938 23.757812 112.777344 23.074219 114.132812 22.363281 C 115.511719 21.6875 116.90625 20.929688 118.425781 20.3125 C 119.941406 19.695312 121.523438 19.085938 123.183594 18.492188 C 117.914062 21.054688 119.808594 20.714844 122.765625 19.886719 C 125.703125 18.984375 129.832031 17.914062 128.960938 18.425781 C 130.472656 17.929688 132.460938 17.046875 134.730469 16.078125 C 137.03125 15.1875 139.601562 14.191406 142.132812 13.210938 C 144.710938 12.335938 147.300781 11.601562 149.59375 11.070312 C 151.878906 10.519531 153.925781 10.457031 155.339844 10.65625 C 159.117188 10.75 147.890625 13.132812 156.636719 11.929688 C 158.039062 11.640625 159.320312 11.296875 160.414062 11.015625 C 161.503906 10.765625 162.390625 10.507812 162.988281 10.265625 C 164.175781 9.789062 164.191406 9.390625 162.285156 9.253906 C 174.984375 6.972656 190.4375 6.917969 204.441406 8.265625 L 201.007812 9.050781 C 205.355469 9.714844 209.609375 10.3125 213.449219 10.34375 C 217.246094 10.632812 220.613281 10.546875 223.019531 10.445312 C 224.125 11.136719 224.855469 10.988281 223.394531 11.285156 C 226.039062 12.34375 228.253906 12.941406 230.390625 13.316406 C 232.507812 13.746094 234.527344 14.035156 236.800781 14.300781 C 239.085938 14.53125 241.558594 14.972656 244.582031 15.703125 C 247.632812 16.359375 251.121094 17.609375 255.425781 19.40625 C 255.222656 18.53125 253.167969 17.289062 250.433594 16.070312 C 247.71875 14.804688 244.207031 13.917969 241.296875 13.265625 L 243.289062 12.167969 C 227.785156 6.789062 209.316406 4.289062 196.121094 4.640625 L 202.269531 3.867188 C 199.457031 3.085938 197.511719 2.789062 196.03125 2.742188 C 194.550781 2.761719 193.53125 3 192.539062 3.226562 C 191.546875 3.457031 190.585938 3.675781 189.199219 3.660156 C 188.511719 3.652344 187.710938 3.585938 186.753906 3.429688 C 185.796875 3.324219 184.667969 3.140625 183.320312 2.855469 C 175.367188 3.65625 189.085938 3.578125 183.105469 4.4375 C 180.300781 4.269531 180.628906 3.535156 180.496094 2.855469 C 180.425781 2.519531 180.238281 2.195312 179.476562 1.964844 C 178.707031 1.734375 177.359375 1.5625 174.984375 1.746094 C 192.796875 0.160156 212.1875 1.46875 231.066406 6.039062 C 240.492188 8.355469 249.792969 11.417969 258.742188 15.140625 C 267.671875 18.914062 276.203125 23.410156 284.234375 28.320312 C 284.996094 28.457031 283.410156 27.242188 281.769531 26.140625 C 283.324219 26.714844 285.96875 28.289062 289.496094 30.460938 C 292.921875 32.777344 297.214844 35.738281 301.730469 39.519531 C 310.828125 46.972656 321.15625 57.246094 329.703125 68.511719 C 338.347656 79.707031 345.351562 91.632812 350.152344 100.933594 C 351.378906 103.246094 352.511719 105.382812 353.429688 107.335938 C 354.382812 109.277344 355.257812 110.972656 356.035156 112.386719 C 357.488281 115.257812 358.5625 117 359.242188 117.195312 C 359.335938 119.183594 356.4375 113.765625 359.429688 121.175781 C 359.957031 121.753906 361.011719 123.566406 361 121.558594 C 363.375 131.519531 366.480469 142.910156 368.566406 155.097656 C 370.664062 167.253906 371.617188 180.21875 370.28125 192.351562 C 370.640625 192.101562 370.953125 193.324219 371.097656 194.625 C 371.253906 195.933594 371.382812 197.324219 371.644531 197.382812 C 371.027344 199.453125 370.722656 201.90625 370.304688 204.527344 C 369.882812 207.140625 369.585938 209.949219 369.257812 212.738281 C 368.828125 215.507812 368.421875 218.277344 367.972656 220.824219 C 367.476562 223.355469 366.820312 225.644531 366.15625 227.503906 L 367.5625 225.214844 C 367.5625 225.214844 367.214844 226.730469 366.691406 228.996094 C 366.214844 231.277344 365.253906 234.234375 364.441406 237.234375 C 364.226562 237.980469 364.015625 238.726562 363.804688 239.460938 C 363.5625 240.183594 363.320312 240.898438 363.085938 241.585938 C 362.625 242.964844 362.1875 244.253906 361.816406 245.355469 C 361.441406 246.457031 361.128906 247.375 360.914062 248.023438 C 360.664062 248.652344 360.523438 249.011719 360.523438 249.011719 C 360.527344 249.40625 360.863281 248.832031 361.261719 247.90625 C 361.625 246.972656 362.109375 245.71875 362.46875 244.792969 C 361.804688 247.4375 361.113281 248.960938 360.441406 249.824219 C 359.792969 250.699219 359.242188 250.945312 358.804688 251.0625 C 358.804688 251.0625 358.21875 253.800781 357.632812 256.539062 C 356.917969 259.246094 356.199219 261.957031 356.199219 261.957031 C 354.257812 265.546875 351.96875 269.070312 349.910156 272.816406 C 347.605469 276.433594 345.480469 280.257812 342.988281 283.957031 C 340.652344 287.757812 338 291.433594 335.414062 295.25 C 332.648438 298.921875 329.9375 302.730469 326.886719 306.324219 C 315.054688 320.953125 300.210938 334.238281 283.746094 343.234375 C 281.714844 345.300781 279.679688 347.027344 277.152344 348.898438 C 275.902344 349.855469 274.4375 350.683594 272.8125 351.65625 C 271.160156 352.585938 269.363281 353.691406 267.191406 354.703125 C 267.191406 354.703125 268.324219 354.347656 269.410156 353.890625 C 270.511719 353.453125 271.605469 353.015625 271.605469 353.015625 C 267.539062 355.816406 267.257812 355.585938 267.203125 355.367188 C 267.128906 355.109375 267.191406 354.707031 263.539062 356.6875 C 258.765625 359.847656 262.867188 359.4375 269.539062 355.476562 C 274.035156 353.707031 271.664062 355.585938 268.667969 357.386719 C 254.660156 363.890625 240.292969 368.304688 226.375 370.660156 C 212.453125 373.039062 198.996094 373.28125 186.753906 371.960938 " fill-opacity="1" fill-rule="nonzero"/></g><g clip-path="url(#03c0a9bd35)"><path fill="#ffffff" d="M 152.511719 374.421875 C 150.90625 373.789062 154.222656 374.230469 156.957031 374.460938 C 159.703125 374.609375 161.847656 374.5 157.933594 373.261719 C 145.398438 370 129.140625 365.707031 113.109375 358.941406 C 105.171875 355.433594 97.230469 351.523438 89.980469 346.988281 C 82.757812 342.433594 76.050781 337.5625 70.535156 332.40625 C 69.128906 330.957031 67.984375 329.773438 66.976562 328.738281 C 65.988281 327.679688 65.132812 326.773438 64.300781 325.882812 C 62.609375 324.128906 60.929688 322.515625 58.578125 319.792969 C 58.3125 319.871094 58.085938 320.082031 58.148438 320.519531 C 56.714844 319.070312 54.933594 317.523438 53.210938 315.703125 C 51.472656 313.890625 49.59375 311.992188 47.78125 310.035156 C 46.03125 308.019531 44.296875 305.996094 42.703125 304.058594 C 41.144531 302.09375 39.8125 300.144531 38.6875 298.449219 C 37.023438 296.820312 35.042969 296.15625 38.015625 299.496094 C 35.851562 297.238281 34.214844 294.835938 32.753906 292.550781 C 32.03125 291.40625 31.347656 290.292969 30.738281 289.1875 C 30.171875 288.058594 29.625 286.964844 29.097656 285.910156 C 26.964844 281.71875 25.515625 277.976562 23.390625 275.175781 C 25.730469 280.773438 19.441406 270.488281 22.515625 277.050781 C 16.105469 265.613281 20.40625 264.804688 16.730469 255.421875 C 16.222656 254.984375 15.683594 254.53125 16.359375 256.464844 C 15.75 253.726562 14.570312 250.4375 13.308594 246.949219 C 12.199219 243.410156 10.691406 239.773438 9.734375 236.28125 C 8.675781 232.816406 7.75 229.632812 7.414062 227.160156 C 7.019531 224.699219 7 223.011719 7.628906 222.578125 C 7.628906 222.578125 7.496094 222.320312 7.292969 221.9375 C 7.082031 221.5625 6.828125 221.046875 6.589844 220.527344 C 6.105469 219.492188 5.621094 218.453125 5.621094 218.453125 C 5.738281 213.519531 6.359375 214.628906 5.769531 206.644531 C 4.671875 201.527344 4.75 206.972656 4.082031 205.125 C 4.441406 203.964844 4.3125 199.902344 4.1875 195.332031 C 4.074219 193.046875 4.246094 190.621094 4.351562 188.378906 C 4.496094 186.140625 4.679688 184.074219 5.164062 182.5 C 5.613281 182.414062 5.671875 183.070312 5.523438 184.203125 C 5.429688 185.339844 5.171875 186.953125 4.902344 188.785156 C 4.664062 190.621094 4.328125 192.675781 4.335938 194.664062 C 4.347656 196.640625 4.53125 198.558594 5.050781 200.097656 C 5.421875 200.265625 5.457031 199.347656 5.402344 198.058594 C 5.8125 206.308594 6.714844 214.03125 7.597656 221.464844 C 8.714844 228.855469 9.863281 235.96875 11.613281 242.78125 C 14.976562 256.40625 19.871094 269.132812 27.605469 280.695312 C 28.710938 283.601562 30.167969 285.898438 31.632812 287.652344 C 33.113281 289.40625 34.746094 290.53125 36.011719 291.285156 C 35.390625 290.199219 34.488281 288.609375 33.480469 286.839844 C 32.507812 285.042969 31.40625 283.089844 30.296875 281.304688 C 28.109375 277.730469 26.128906 274.695312 24.917969 275.179688 C 24.917969 275.179688 24.738281 274.664062 24.46875 273.882812 C 24.183594 273.113281 23.839844 272.070312 23.546875 271.007812 C 22.925781 268.90625 22.304688 266.800781 22.304688 266.800781 C 20.695312 263.953125 23.015625 262.925781 22.828125 261.480469 C 25.175781 267.019531 30.476562 271.738281 27.640625 264.285156 C 31.265625 271.074219 29.601562 270.59375 27.742188 269.914062 C 26.839844 269.554688 25.914062 269.136719 25.648438 269.570312 C 25.386719 269.996094 25.742188 271.308594 27.65625 274.25 L 30.242188 275.113281 C 29.183594 274.207031 29.917969 276.496094 31.386719 279.414062 C 32.957031 282.269531 35.058594 285.871094 36.660156 287.511719 C 36.660156 287.511719 36.464844 287.078125 36.265625 286.648438 C 36.066406 286.222656 35.882812 285.78125 35.882812 285.78125 C 40.929688 293.5625 47.066406 301.585938 54.257812 309.261719 C 61.441406 316.941406 69.671875 324.269531 78.632812 330.804688 C 87.589844 337.339844 97.273438 343.078125 107.226562 347.730469 C 117.175781 352.402344 127.359375 356.035156 137.234375 358.671875 C 138.289062 359.554688 139.550781 360.320312 140.960938 361.007812 C 142.386719 361.632812 143.96875 362.132812 145.644531 362.585938 C 147.324219 363.007812 149.078125 363.460938 150.90625 363.707031 C 152.734375 363.960938 154.605469 364.175781 156.46875 364.378906 C 158.320312 364.617188 160.1875 364.738281 162.007812 364.851562 C 163.824219 364.984375 165.589844 365.140625 167.261719 365.359375 C 170.617188 365.71875 173.609375 366.1875 175.941406 367.296875 C 180.484375 367.015625 169.621094 365.257812 178.289062 365.28125 C 182.609375 365.117188 182.976562 366.308594 182.773438 366.632812 C 184.082031 366.546875 185.414062 366.464844 186.753906 366.378906 C 188.316406 368.558594 187.296875 370.652344 182.070312 372.382812 C 180.769531 372.820312 179.199219 373.238281 177.351562 373.632812 C 175.503906 373.976562 173.375 374.226562 170.933594 374.464844 C 169.714844 374.578125 168.417969 374.699219 167.039062 374.777344 C 165.667969 374.792969 164.214844 374.808594 162.683594 374.832031 C 161.152344 374.816406 159.53125 374.800781 157.835938 374.789062 C 156.140625 374.71875 154.375 374.566406 152.511719 374.421875 " fill-opacity="1" fill-rule="nonzero"/></g><path stroke-linecap="butt" transform="matrix(0.75, 0, 0, 0.75, 163.90599, 81.291674)" fill="none" stroke-linejoin="miter" d="M 194.28161 147.814236 C 194.28161 157.699654 191.823276 166.538196 186.906609 174.319446 C 181.989942 182.053822 175.635775 187.381947 167.854525 190.303822 C 192.182651 191.585072 209.906611 201.137156 221.021195 218.960074 C 226.703487 227.9757 229.547237 239.090284 229.547237 252.303826 C 229.547237 265.517369 224.448278 277.57987 214.255569 288.491329 C 204.114944 299.402788 191.15661 307.163205 175.380567 311.77258 C 159.656608 316.381956 143.088898 318.689247 125.67223 318.689247 C 82.234727 318.689247 51.198267 307.163205 32.552432 284.11112 C 20.568057 269.413203 14.573265 249.590285 14.573265 224.647575 C 14.573265 220.444449 14.802431 216.246532 15.265973 212.043407 L 18.417015 211.736115 C 19.849307 247.798618 32.729516 273.585078 57.062851 289.105912 L 57.062851 116.392359 C 56.854517 108.6059 53.401392 102.944442 46.68785 99.413191 C 43.771183 97.720483 40.515975 96.876733 36.932641 96.876733 L 32.859724 96.876733 L 32.859724 93.725691 L 112.765979 93.725691 C 136.068064 93.725691 155.484732 98.38715 171.000358 107.710067 C 186.521193 117.032984 194.28161 130.397568 194.28161 147.814236 Z M 113.073271 303.934038 C 132.588897 303.934038 147.849315 298.814246 158.864941 288.569454 C 169.875358 278.272578 175.380567 264.725702 175.380567 247.923618 C 175.380567 237.423617 173.43265 228.564242 169.542025 221.340283 C 165.698275 214.069449 160.630566 208.663199 154.328482 205.131948 C 142.807648 198.215281 129.693064 194.756948 114.989938 194.756948 L 114.989938 191.913197 C 121.70348 191.913197 127.35973 189.506947 131.974314 184.694447 C 139.963898 176.293405 143.95869 164.845487 143.95869 150.350695 C 143.95869 135.855902 140.755565 125.147568 134.354523 118.236109 C 127.95348 111.319442 117.937855 107.657984 104.312854 107.246525 L 104.312854 303.626746 C 107.234729 303.83508 110.151396 303.934038 113.073271 303.934038 Z M 113.073271 303.934038 " stroke="#2b554e" stroke-width="11.801362" stroke-opacity="1" stroke-miterlimit="4"/><g fill="#ffffff" fill-opacity="1"><g transform="translate(176.046614, 316.791658)"><g><path d="M 133.59375 -124.625 C 133.59375 -117.226562 131.742188 -110.617188 128.046875 -104.796875 C 124.347656 -98.972656 119.585938 -94.960938 113.765625 -92.765625 C 132.015625 -91.816406 145.3125 -84.65625 153.65625 -71.28125 C 157.90625 -64.507812 160.03125 -56.164062 160.03125 -46.25 C 160.03125 -36.34375 156.210938 -27.296875 148.578125 -19.109375 C 140.941406 -10.929688 131.222656 -5.109375 119.421875 -1.640625 C 107.628906 1.816406 95.203125 3.546875 82.140625 3.546875 C 49.566406 3.546875 26.273438 -5.109375 12.265625 -22.421875 C 3.296875 -33.429688 -1.1875 -48.300781 -1.1875 -67.03125 C -1.1875 -70.175781 -1.023438 -73.320312 -0.703125 -76.46875 L 1.65625 -76.703125 C 2.75 -49.640625 12.425781 -30.285156 30.6875 -18.640625 L 30.6875 -148.234375 C 30.53125 -154.046875 27.929688 -158.289062 22.890625 -160.96875 C 20.691406 -162.226562 18.253906 -162.859375 15.578125 -162.859375 L 12.515625 -162.859375 L 12.515625 -165.21875 L 72.453125 -165.21875 C 89.921875 -165.21875 104.476562 -161.71875 116.125 -154.71875 C 127.769531 -147.71875 133.59375 -137.6875 133.59375 -124.625 Z M 72.703125 -7.546875 C 87.328125 -7.546875 98.769531 -11.398438 107.03125 -19.109375 C 115.300781 -26.828125 119.4375 -36.976562 119.4375 -49.5625 C 119.4375 -57.4375 117.976562 -64.085938 115.0625 -69.515625 C 112.15625 -74.941406 108.335938 -78.992188 103.609375 -81.671875 C 94.960938 -86.859375 85.128906 -89.453125 74.109375 -89.453125 L 74.109375 -91.578125 C 79.148438 -91.578125 83.398438 -93.390625 86.859375 -97.015625 C 92.835938 -103.304688 95.828125 -111.878906 95.828125 -122.734375 C 95.828125 -133.585938 93.425781 -141.609375 88.625 -146.796875 C 83.820312 -151.992188 76.3125 -154.753906 66.09375 -155.078125 L 66.09375 -7.78125 C 68.289062 -7.625 70.492188 -7.546875 72.703125 -7.546875 Z M 72.703125 -7.546875 "/></g></g></g><path stroke-linecap="butt" transform="matrix(0.75, 0, 0, 0.75, 44.923408, -10.671691)" fill="none" stroke-linejoin="miter" d="M 350.560479 367.473737 C 334.221936 375.671654 316.805269 379.765405 298.315684 379.765405 C 281.977141 379.765405 267.096932 377.254988 253.680264 372.239362 C 224.685471 361.531028 200.024011 340.661235 179.690676 309.619567 C 174.466718 302.041441 164.7063 287.57269 150.419841 266.213314 C 136.180257 244.801854 126.956298 231.150811 122.758381 225.260186 C 115.38338 213.734144 109.492755 207.437268 105.086505 206.359143 L 105.086505 203.208101 C 105.28963 203.208101 105.550046 203.208101 105.857338 203.208101 C 106.211505 203.208101 106.596921 203.208101 107.00838 203.208101 C 107.419838 203.208101 107.826088 203.208101 108.237547 203.208101 C 108.649005 203.208101 109.159422 203.208101 109.774005 203.208101 C 110.440672 203.208101 110.97713 203.208101 111.388588 203.208101 C 122.091714 203.208101 131.95109 200.801851 140.966715 195.989351 C 154.591716 188.4581 161.404217 174.499766 161.404217 154.114348 C 161.404217 139.208097 157.2063 127.734138 148.805258 119.692471 C 140.456299 111.603929 130.38859 107.557053 118.607339 107.557053 L 94.716712 107.557053 L 94.716712 291.025815 C 94.716712 296.458107 96.711504 301.119566 100.706296 305.010191 C 104.701088 308.906025 109.41463 310.848733 114.846922 310.848733 L 118.992756 310.848733 L 118.992756 313.999775 L 23.263583 313.999775 L 23.263583 310.848733 L 27.409416 310.848733 C 32.633375 310.848733 37.24275 308.978942 41.24275 305.239358 C 45.237542 301.452899 47.336501 296.817482 47.539626 291.333107 L 47.539626 116.697679 C 47.336501 111.218512 45.284417 106.557053 41.393792 102.713303 C 37.503167 98.822678 32.841708 96.874761 27.409416 96.874761 L 23.263583 96.874761 L 23.263583 93.723719 L 131.211506 93.723719 C 158.305258 93.723719 179.279218 99.895595 194.133385 112.239345 C 205.914636 121.921638 211.805262 135.57268 211.805262 153.192473 C 211.805262 170.812266 206.070886 185.129975 194.596927 196.140393 C 183.175051 207.156018 170.138592 212.661227 155.48755 212.661227 C 154.2063 212.661227 152.826091 212.55706 151.341716 212.353935 C 159.945883 216.963311 167.138592 222.109144 172.930259 227.796645 C 178.716718 233.432062 183.763593 238.78102 188.065677 243.853937 C 192.36776 248.874771 196.029219 253.327896 199.050052 257.22373 C 202.070886 261.062272 206.09172 266.187272 211.112553 272.588314 C 216.18547 278.989356 221.435471 285.676857 226.862554 292.640399 C 232.34693 299.557066 238.388597 306.624775 244.997972 313.848734 C 251.602139 321.067484 258.930265 327.932068 266.971932 334.437277 C 275.060474 340.942485 283.310475 346.296652 291.711517 350.494569 C 309.534435 359.510195 329.154228 364.11957 350.560479 364.322695 Z M 350.560479 367.473737 " stroke="#2b554e" stroke-width="11.801362" stroke-opacity="1" stroke-miterlimit="4"/><g fill="#ffffff" fill-opacity="1"><g transform="translate(51.767158, 224.828294)"><g><path d="M 256.09375 40.125 C 243.820312 46.257812 230.757812 49.328125 216.90625 49.328125 C 204.632812 49.328125 193.460938 47.441406 183.390625 43.671875 C 161.679688 35.640625 143.191406 19.984375 127.921875 -3.296875 C 123.992188 -8.960938 116.675781 -19.820312 105.96875 -35.875 C 95.269531 -51.925781 88.347656 -62.15625 85.203125 -66.5625 C 79.703125 -75.21875 75.296875 -79.9375 71.984375 -80.71875 L 71.984375 -83.078125 C 72.140625 -83.078125 72.335938 -83.078125 72.578125 -83.078125 C 72.816406 -83.078125 73.09375 -83.078125 73.40625 -83.078125 C 73.71875 -83.078125 74.03125 -83.078125 74.34375 -83.078125 C 74.664062 -83.078125 75.0625 -83.078125 75.53125 -83.078125 C 76 -83.078125 76.390625 -83.078125 76.703125 -83.078125 C 84.734375 -83.078125 92.128906 -84.890625 98.890625 -88.515625 C 109.117188 -94.179688 114.234375 -104.644531 114.234375 -119.90625 C 114.234375 -131.070312 111.085938 -139.6875 104.796875 -145.75 C 98.503906 -151.8125 90.953125 -154.84375 82.140625 -154.84375 L 64.203125 -154.84375 L 64.203125 -17.234375 C 64.203125 -13.140625 65.695312 -9.632812 68.6875 -6.71875 C 71.675781 -3.8125 75.21875 -2.359375 79.3125 -2.359375 L 82.375 -2.359375 L 82.375 0 L 10.625 0 L 10.625 -2.359375 L 13.6875 -2.359375 C 17.625 -2.359375 21.085938 -3.773438 24.078125 -6.609375 C 27.066406 -9.441406 28.640625 -12.90625 28.796875 -17 L 28.796875 -147.984375 C 28.640625 -152.078125 27.101562 -155.578125 24.1875 -158.484375 C 21.28125 -161.398438 17.78125 -162.859375 13.6875 -162.859375 L 10.625 -162.859375 L 10.625 -165.21875 L 91.578125 -165.21875 C 111.878906 -165.21875 127.613281 -160.578125 138.78125 -151.296875 C 147.59375 -144.054688 152 -133.828125 152 -120.609375 C 152 -107.390625 147.710938 -96.648438 139.140625 -88.390625 C 130.566406 -80.128906 120.769531 -76 109.75 -76 C 108.8125 -76 107.789062 -76.078125 106.6875 -76.234375 C 113.132812 -72.773438 118.519531 -68.921875 122.84375 -64.671875 C 127.175781 -60.421875 130.953125 -56.40625 134.171875 -52.625 C 137.398438 -48.851562 140.15625 -45.507812 142.4375 -42.59375 C 144.726562 -39.6875 147.757812 -35.832031 151.53125 -31.03125 C 155.3125 -26.238281 159.242188 -21.242188 163.328125 -16.046875 C 167.421875 -10.859375 171.945312 -5.546875 176.90625 -0.109375 C 181.863281 5.316406 187.367188 10.46875 193.421875 15.34375 C 199.484375 20.21875 205.660156 24.226562 211.953125 27.375 C 225.328125 34.144531 240.039062 37.609375 256.09375 37.765625 Z M 256.09375 40.125 "/></g></g></g></svg>